<svg width="20" height="20" viewBox="0 0 20 20" fill="currentColor" xmlns="http://www.w3.org/2000/svg">
<path d="M20 9.25V4.25C20.0007 4.08566 19.9688 3.92282 19.9062 3.77086C19.8436 3.61891 19.7516 3.48085 19.6354 3.36464C19.5192 3.24844 19.3811 3.15639 19.2291 3.0938C19.0772 3.03122 18.9143 2.99934 18.75 3H16V1.5C16 1.16848 15.8683 0.850537 15.6339 0.616117C15.3995 0.381696 15.0815 0.25 14.75 0.25C14.4185 0.25 14.1005 0.381696 13.8661 0.616117C13.6317 0.850537 13.5 1.16848 13.5 1.5V3H6.5V1.5C6.5 1.16848 6.3683 0.850537 6.13388 0.616117C5.89946 0.381696 5.58152 0.25 5.25 0.25C4.91848 0.25 4.60054 0.381696 4.36612 0.616117C4.1317 0.850537 4 1.16848 4 1.5V3H1.25C0.918789 3.0021 0.601392 3.133 0.365 3.365C0.133 3.60139 0.00209604 3.91879 0 4.25L0 18.75C0.00209604 19.0812 0.133 19.3986 0.365 19.635C0.601392 19.867 0.918789 19.9979 1.25 20H18.75C18.9143 20.0007 19.0772 19.9688 19.2291 19.9062C19.3811 19.8436 19.5192 19.7516 19.6354 19.6354C19.7516 19.5192 19.8436 19.3811 19.9062 19.2291C19.9688 19.0772 20.0007 18.9143 20 18.75V9.25ZM17.5 5.5V8H2.5V5.5H17.5ZM2.5 10.5H17.5V17.5H2.5V10.5Z" />
</svg>
