<svg width="17" height="11" viewBox="0 0 17 11" fill="currentColor" xmlns="http://www.w3.org/2000/svg">
  <path d="M8.46195 10.0171C8.30586 10.0177 8.15121 9.9873 8.00691 9.92779C7.86262 9.86828 7.73153 9.78079 7.6212 9.67037L0.496199 2.54537C0.273219 2.32239 0.147949 2.01997 0.147949 1.70463C0.147949 1.38928 0.273219 1.08686 0.496199 0.863875C0.71918 0.640894 1.02161 0.515625 1.33695 0.515625C1.65229 0.515625 1.95472 0.640894 2.1777 0.863875L8.46195 7.15287L14.7462 0.863875C14.9692 0.640894 15.2716 0.515625 15.5869 0.515625C15.9023 0.515625 16.2047 0.640894 16.4277 0.863875C16.6507 1.08686 16.7759 1.38928 16.7759 1.70463C16.7759 2.01997 16.6507 2.32239 16.4277 2.54537L9.3027 9.67037C9.19237 9.78079 9.06128 9.86828 8.91698 9.92779C8.77269 9.9873 8.61804 10.0177 8.46195 10.0171Z" />
</svg>
