<svg width="20" height="20" viewBox="0 0 20 20" fill="currentColor" xmlns="http://www.w3.org/2000/svg">
  <circle cx="10" cy="10" r="10" />
  <svg x="5" y="6" fill="white">
    <path d="M3.37508 7.79411C3.29292 7.7944 3.21153 7.77842 3.13558 7.7471C3.05964 7.71577 2.99064 7.66973 2.93258 7.61161L0.682575 5.36161C0.622969 5.30387 0.575458 5.23484 0.542814 5.15854C0.510171 5.08225 0.493049 5.00021 0.492448 4.91723C0.491847 4.83424 0.507778 4.75197 0.539312 4.67521C0.570846 4.59844 0.617352 4.52873 0.676115 4.47013C0.734879 4.41154 0.804724 4.36523 0.881576 4.33391C0.958427 4.30259 1.04075 4.28689 1.12373 4.28773C1.20671 4.28857 1.2887 4.30592 1.3649 4.33878C1.44111 4.37164 1.51 4.41934 1.56758 4.47911L3.37508 6.28661L9.43507 0.226614C9.55311 0.112921 9.71108 0.0501384 9.87496 0.0517896C10.0388 0.0534407 10.1955 0.119393 10.3112 0.235442C10.4269 0.35149 10.4925 0.508348 10.4936 0.672229C10.4948 0.83611 10.4316 0.993901 10.3176 1.11161L3.81758 7.61161C3.75951 7.66973 3.69051 7.71577 3.61457 7.7471C3.53862 7.77842 3.45723 7.7944 3.37508 7.79411Z" fill="white" />
  </svg>
</svg>
